<svg xmlns="http://www.w3.org/2000/svg" viewBox="0 0 1100 620">
<rect width="1100" height="620" rx="28" fill="#031426" stroke="#145681" stroke-width="3"/>
<text x="55" y="60" fill="#f2f6fb" font-family="Arial" font-size="30" font-weight="700">Plate Heat Exchanger — Counter-Current Flow</text>
<text x="55" y="92" fill="#9fb4c7" font-family="Arial" font-size="17">Corrugated plates create alternate channels and promote turbulence for efficient heat transfer.</text>
<g transform="translate(250 130)">
<rect x="0" y="0" width="600" height="380" rx="12" fill="#071f33" stroke="#6f8799" stroke-width="3"/>
<g stroke="#8fa9ba" stroke-width="7">
<path d="M35 30 L150 110 L35 190 L150 270 L35 350" fill="none"/><path d="M180 30 L295 110 L180 190 L295 270 L180 350" fill="none"/><path d="M325 30 L440 110 L325 190 L440 270 L325 350" fill="none"/><path d="M470 30 L585 110 L470 190 L585 270 L470 350" fill="none"/>
</g>
<g font-family="Arial" font-size="18" font-weight="700"><path d="M95 380V25" stroke="#29a9ff" stroke-width="9"/><polygon points="95,18 84,38 106,38" fill="#29a9ff"/><text x="120" y="200" fill="#73caff">COLD MILK ↑</text><path d="M500 20V380" stroke="#ff765f" stroke-width="9"/><polygon points="500,387 489,367 511,367" fill="#ff765f"/><text x="520" y="200" fill="#ff9c8c">HOT MILK ↓</text></g>
</g>
<g font-family="Arial"><text x="70" y="555" fill="#b8c9d7" font-size="18">Key idea:</text><text x="170" y="555" fill="#f2f6fb" font-size="18">hot pasteurized milk transfers heat to incoming cold raw milk in the regeneration section.</text></g>
</svg>
